<svg xmlns="http://www.w3.org/2000/svg" width="122" height="122" viewBox="0 0 122 122">
  <g id="Group_18574" data-name="Group 18574" transform="translate(-81.939 -6964.156)">
    <g id="Rectangle_10853" data-name="Rectangle 10853" transform="translate(81.939 6964.156)" fill="#fff" stroke="#707070" stroke-width="1" opacity="0.1">
      <rect width="122" height="122" rx="16" stroke="none"/>
      <rect x="0.5" y="0.5" width="121" height="121" rx="15.5" fill="none"/>
    </g>
    <g id="aws-2" transform="translate(103.223 7001.304)">
      <path id="Path_37988" data-name="Path 37988" d="M32.4,17.627a7.658,7.658,0,0,0,.278,2.252,13.547,13.547,0,0,0,.81,1.822,1.1,1.1,0,0,1,.177.582,1,1,0,0,1-.481.759l-1.594,1.063a1.213,1.213,0,0,1-.658.228,1.165,1.165,0,0,1-.759-.354,7.83,7.83,0,0,1-.911-1.19c-.253-.43-.506-.911-.785-1.493a9.349,9.349,0,0,1-7.441,3.493,6.935,6.935,0,0,1-5.062-1.822A6.5,6.5,0,0,1,14.1,18.107a6.515,6.515,0,0,1,2.3-5.214,9.207,9.207,0,0,1,6.2-1.974,20.038,20.038,0,0,1,2.683.2c.936.127,1.9.329,2.911.557V9.832c0-1.923-.4-3.265-1.19-4.049C26.2,5,24.831,4.618,22.882,4.618a11.515,11.515,0,0,0-2.733.329,20.166,20.166,0,0,0-2.733.86,7.262,7.262,0,0,1-.886.329,1.552,1.552,0,0,1-.4.076c-.354,0-.531-.253-.531-.785V4.188A1.6,1.6,0,0,1,15.77,3.3a1.9,1.9,0,0,1,.709-.531,14.571,14.571,0,0,1,3.189-1.139,15.344,15.344,0,0,1,3.948-.481c3.012,0,5.214.683,6.631,2.05,1.392,1.367,2.1,3.442,2.1,6.226v8.2ZM22.123,21.474a8.2,8.2,0,0,0,2.607-.456,5.64,5.64,0,0,0,2.4-1.62,4.017,4.017,0,0,0,.86-1.62,9.086,9.086,0,0,0,.253-2.2V14.514a21.136,21.136,0,0,0-2.328-.43,19.071,19.071,0,0,0-2.379-.152,5.835,5.835,0,0,0-3.771,1.012,3.528,3.528,0,0,0-1.24,2.911,3.266,3.266,0,0,0,3.594,3.619Zm20.323,2.733a1.413,1.413,0,0,1-.962-.253,2.063,2.063,0,0,1-.531-.987L35.005,3.4a4.433,4.433,0,0,1-.228-1.012.555.555,0,0,1,.607-.633h2.48a1.4,1.4,0,0,1,.987.253A2.071,2.071,0,0,1,39.358,3L43.61,19.753,47.558,3a1.775,1.775,0,0,1,.481-.987,1.741,1.741,0,0,1,1.012-.253h2.025a1.523,1.523,0,0,1,1.012.253A1.705,1.705,0,0,1,52.569,3l4,16.957L60.947,3a2.17,2.17,0,0,1,.506-.987,1.651,1.651,0,0,1,.987-.253h2.354a.563.563,0,0,1,.633.633,2.524,2.524,0,0,1-.051.4,3.6,3.6,0,0,1-.177.633L59.1,22.992a1.94,1.94,0,0,1-.531.987,1.619,1.619,0,0,1-.962.253H55.429a1.523,1.523,0,0,1-1.012-.253,1.794,1.794,0,0,1-.481-1.012L50.013,6.643l-3.9,16.3a1.975,1.975,0,0,1-.481,1.012,1.569,1.569,0,0,1-1.012.253Zm32.522.683a16.748,16.748,0,0,1-3.9-.456,11.514,11.514,0,0,1-2.911-1.012,1.824,1.824,0,0,1-.785-.709,1.786,1.786,0,0,1-.152-.709V20.714c0-.531.2-.785.582-.785a1.433,1.433,0,0,1,.456.076c.152.051.38.152.633.253a13.766,13.766,0,0,0,2.784.886,15.2,15.2,0,0,0,3.012.3,6.829,6.829,0,0,0,3.7-.835,2.725,2.725,0,0,0,1.316-2.4,2.465,2.465,0,0,0-.683-1.772,6.35,6.35,0,0,0-2.556-1.316l-3.67-1.139A7.719,7.719,0,0,1,68.742,11.4a6.03,6.03,0,0,1-1.265-3.67,5.633,5.633,0,0,1,.683-2.809,6.507,6.507,0,0,1,1.822-2.075A8.033,8.033,0,0,1,72.614,1.53,11.031,11.031,0,0,1,75.8,1.1a12.705,12.705,0,0,1,1.7.1c.582.076,1.114.177,1.645.278.506.127.987.253,1.443.4a5.524,5.524,0,0,1,1.063.456,2.189,2.189,0,0,1,.759.633,1.364,1.364,0,0,1,.228.835V5c0,.531-.2.81-.582.81a2.633,2.633,0,0,1-.962-.3,11.578,11.578,0,0,0-4.859-.987,6.532,6.532,0,0,0-3.366.709,2.444,2.444,0,0,0-1.19,2.252,2.39,2.39,0,0,0,.759,1.8,7.56,7.56,0,0,0,2.784,1.392l3.594,1.139a7.7,7.7,0,0,1,3.923,2.43A5.727,5.727,0,0,1,83.9,17.778a6.506,6.506,0,0,1-.658,2.936A6.807,6.807,0,0,1,81.4,22.941a8.158,8.158,0,0,1-2.809,1.417,12.035,12.035,0,0,1-3.619.531Z" transform="translate(-9.286)" fill="#252f3e"/>
      <g id="Group_19807" data-name="Group 19807" transform="translate(1.668 29.469)">
        <path id="Path_37989" data-name="Path 37989" d="M70.465,125.358c-8.327,6.15-20.424,9.415-30.826,9.415a55.768,55.768,0,0,1-37.634-14.35c-.785-.709-.076-1.67.86-1.114a75.9,75.9,0,0,0,37.659,10,75.151,75.151,0,0,0,28.725-5.872C70.643,122.8,71.832,124.346,70.465,125.358Z" transform="translate(-1.668 -117.637)" fill="#f90" fill-rule="evenodd"/>
        <path id="Path_37990" data-name="Path 37990" d="M256.417,116.965c-1.063-1.367-7.036-.658-9.744-.329-.81.1-.936-.607-.2-1.139,4.758-3.341,12.578-2.379,13.49-1.265.911,1.139-.253,8.959-4.707,12.705-.683.582-1.341.278-1.038-.481C255.228,123.95,257.48,118.307,256.417,116.965Z" transform="translate(-184.153 -113.192)" fill="#f90" fill-rule="evenodd"/>
      </g>
    </g>
  </g>
</svg>
