<svg xmlns="http://www.w3.org/2000/svg" width="65.679" height="11.952" viewBox="0 0 65.679 11.952">
  <g id="Group_105716" data-name="Group 105716" transform="translate(-3441.97 -6314.625)">
    <g id="Group_105715" data-name="Group 105715" transform="translate(3441.97 6314.625)">
      <path id="Path_78830" data-name="Path 78830" d="M6.86,167.425H0V155.5H6.86v2.063H2.519v2.626H6.565v2.063H2.519v3.082H6.86Z" transform="translate(0 -155.473)" fill="#ff5a5f"/>
      <path id="Path_78831" data-name="Path 78831" d="M45.485,167.351H42.269l-5.2-9.031h-.08c.107,1.581.161,2.733.161,3.4v5.627H34.9V155.427h3.189l5.172,8.923h.054c-.08-1.554-.134-2.653-.134-3.3V155.4h2.278v11.951Z" transform="translate(-25.548 -155.4)" fill="#ff5a5f"/>
      <path id="Path_78832" data-name="Path 78832" d="M90.4,167.425H81.5V165.79l5.708-8.2H81.661V155.5h8.575v1.635l-5.708,8.2H90.4v2.09Z" transform="translate(-59.661 -155.473)" fill="#ff5a5f"/>
      <path id="Path_78833" data-name="Path 78833" d="M121.325,160.4l2.492-4.9h2.733l-3.966,7.289v4.636h-2.519v-4.555L116.1,155.5h2.733Z" transform="translate(-84.989 -155.473)" fill="#ff5a5f"/>
      <path id="Path_78834" data-name="Path 78834" d="M165.738,167.425l-2.867-9.352h-.08c.107,1.9.161,3.162.161,3.805v5.547H160.7V155.5h3.457l2.814,9.111h.054l3-9.111h3.457v11.925h-2.358v-6.565c0-.348.054-1.286.107-2.787h-.08l-3.082,9.352Z" transform="translate(-117.638 -155.473)" fill="#ff5a5f"/>
      <path id="Path_78835" data-name="Path 78835" d="M226.36,167.425H219.5V155.5h6.86v2.063h-4.341v2.626h4.046v2.063h-4.046v3.082h4.341Z" transform="translate(-160.681 -155.473)" fill="#ff5a5f"/>
    </g>
  </g>
</svg>
