<svg xmlns="http://www.w3.org/2000/svg" width="81.024" height="28.747" viewBox="0 0 81.024 28.747">
  <g id="expo" transform="translate(4)">
    <path id="Path_78743" data-name="Path 78743" d="M16.165,2.07C14.972.244,14.685,0,12.256,0H12.2C9.755,0,9.5.244,8.275,2.07,7.153,3.766-4,24.2-4,24.779A4.521,4.521,0,0,0-3.023,27.5c.776,1.121,2.142,1.754,3.119.747.676-.676,7.833-13.008,11.283-17.679a1.035,1.035,0,0,1,1.7,0c3.464,4.671,10.622,17,11.283,17.679.977.992,2.328.374,3.119-.747a4.521,4.521,0,0,0,.977-2.717C28.44,24.2,17.286,3.751,16.165,2.07Z" transform="translate(0 0)" fill="#1173b6"/>
    <g id="Group_105678" data-name="Group 105678" transform="translate(32.446 6.291)">
      <path id="Path_78744" data-name="Path 78744" d="M231.856,24.742h8.907v2.214h-6.287v3.773h5.311V32.95h-5.311v4.364h6.509v2.214h-9.129Z" transform="translate(-231.856 -24.742)" fill="#585d67"/>
      <path id="Path_78745" data-name="Path 78745" d="M307.541,55.7l-3.051-4.91,2.828-.384s1.883,3.72,2.028,3.98l2.223-3.98h2.689L311.23,55.7a.453.453,0,0,0,.007.461l3.274,5.034-2.866.308-2.29-4.158c-.169.315-2.374,4.158-2.374,4.158h-2.935l3.488-5.325A.45.45,0,0,0,307.541,55.7Z" transform="translate(-293.669 -46.718)" fill="#585d67"/>
      <path id="Path_78746" data-name="Path 78746" d="M389.984,60.763v3.1l-2.6.384V48.759h2.145l.184,1.176h.093a7.751,7.751,0,0,1,1.56-1.014,3.988,3.988,0,0,1,1.783-.43,4.177,4.177,0,0,1,1.844.392,3.766,3.766,0,0,1,1.367,1.145,5.416,5.416,0,0,1,.861,1.783,8.666,8.666,0,0,1,.291,2.329,7.673,7.673,0,0,1-.392,2.544,5.749,5.749,0,0,1-1.052,1.875,4.526,4.526,0,0,1-1.515,1.16,4.166,4.166,0,0,1-1.783.408,3.633,3.633,0,0,1-1.445-.315,5.312,5.312,0,0,1-1.4-.907Zm0-3.7a3.816,3.816,0,0,0,1.176.723,3.065,3.065,0,0,0,1.06.2,2.269,2.269,0,0,0,1.852-.961,4.588,4.588,0,0,0,.745-2.859,5.006,5.006,0,0,0-.568-2.6,1.983,1.983,0,0,0-1.83-.93,3.608,3.608,0,0,0-2.443,1.245v5.18Z" transform="translate(-365.032 -45.078)" fill="#585d67"/>
      <path id="Path_78747" data-name="Path 78747" d="M468.669,54.314a6.726,6.726,0,0,1,.43-2.467,5.407,5.407,0,0,1,1.16-1.83,5.208,5.208,0,0,1,1.682-1.145,5.148,5.148,0,0,1,1.99-.392,5.239,5.239,0,0,1,2,.392,4.948,4.948,0,0,1,1.682,1.145,5.583,5.583,0,0,1,1.16,1.83,7.156,7.156,0,0,1,0,4.934,5.667,5.667,0,0,1-1.16,1.83,4.783,4.783,0,0,1-1.682,1.129,5.365,5.365,0,0,1-3.987,0,4.849,4.849,0,0,1-1.682-1.129,5.353,5.353,0,0,1-1.16-1.83A6.732,6.732,0,0,1,468.669,54.314Zm2.666,0A4.675,4.675,0,0,0,472.027,57a2.329,2.329,0,0,0,3.834,0,5.524,5.524,0,0,0,0-5.38,2.329,2.329,0,0,0-3.834,0A4.682,4.682,0,0,0,471.335,54.314Z" transform="translate(-434.632 -45.069)" fill="#585d67"/>
    </g>
  </g>
</svg>
