<svg xmlns="http://www.w3.org/2000/svg" xmlns:xlink="http://www.w3.org/1999/xlink" width="75.494" height="21.219" viewBox="0 0 75.494 21.219">
  <defs>
    <clipPath id="clip-path">
      <path id="Path_78800" data-name="Path 78800" d="M72.925,169.362a.734.734,0,1,1,1.375-.348,1.24,1.24,0,0,1-.2.552,2.009,2.009,0,0,0-.2.738v.17a1.974,1.974,0,0,0,1.2,1.816.038.038,0,0,0,.051-.051,1.141,1.141,0,0,1-.068-.407,1.264,1.264,0,0,1,.5-.976c.323-.272.637-.518.925-.806a4.159,4.159,0,0,0,.823-.908,2.659,2.659,0,0,0,.373-1.366,2.707,2.707,0,0,0-1.579-2.453,2.569,2.569,0,0,0-1.511-.2,2.671,2.671,0,0,0-2.19,3.268,2.5,2.5,0,0,0,.187.518C72.721,169.074,72.84,169.21,72.925,169.362Z" transform="translate(-72.343 -165.083)"/>
    </clipPath>
  </defs>
  <g id="ignite-ui-logo" transform="translate(0 -0.043)">
    <g id="Group_105697" data-name="Group 105697" transform="translate(21.184 2.229)">
      <g id="Group_105696" data-name="Group 105696">
        <path id="Path_78785" data-name="Path 78785" d="M249.6,25.8h1.562V37.733H249.6Z" transform="translate(-249.6 -25.8)" fill="#27265f"/>
        <path id="Path_78786" data-name="Path 78786" d="M285.852,78.6a4.806,4.806,0,0,0,2.572.84,2.359,2.359,0,0,0,2.589-2.453V76.4l-.034-.017a4.031,4.031,0,0,1-6.179-3.437,4.062,4.062,0,0,1,4.21-4.244,4.74,4.74,0,0,1,2.054.458L292.5,68.9V76.95c0,2.376-1.579,3.836-4.074,3.836a5.923,5.923,0,0,1-2.572-.6V78.6Zm3.132-2.894a3.5,3.5,0,0,0,2.02-.654V70.576a4.035,4.035,0,0,0-2.037-.552,2.649,2.649,0,0,0-2.673,2.826A2.685,2.685,0,0,0,288.984,75.7Z" transform="translate(-281.813 -65.059)" fill="#27265f"/>
        <path id="Path_78787" data-name="Path 78787" d="M392.617,69.078h1.477V70.1l.034.017a4.021,4.021,0,0,1,2.826-1.214,2.823,2.823,0,0,1,2.156.891,3.3,3.3,0,0,1,.671,2.393v4.982H398.3V72.439a2.455,2.455,0,0,0-.39-1.647,1.7,1.7,0,0,0-1.3-.518,3.4,3.4,0,0,0-2.538,1.349v5.551H392.6v-8.1Z" transform="translate(-380.463 -65.242)" fill="#27265f"/>
        <path id="Path_78788" data-name="Path 78788" d="M492.144,25.8a1.043,1.043,0,0,1,1.044,1.044,1.033,1.033,0,0,1-1.044,1.044,1.044,1.044,0,1,1,0-2.088Zm-.738,3.836h1.477v8.1h-1.477Z" transform="translate(-470.603 -25.8)" fill="#27265f"/>
        <path id="Path_78789" data-name="Path 78789" d="M530.294,49.557V45.6H528.8V44.278h1.494V42.055l1.477-.255v2.453h2.436v1.333h-2.436v3.667c0,1.01.153,1.935,1.214,1.935a2.37,2.37,0,0,0,1.214-.356v1.4a3.55,3.55,0,0,1-1.46.306,2.4,2.4,0,0,1-1.85-.755A3.188,3.188,0,0,1,530.294,49.557Z" transform="translate(-505.103 -40.442)" fill="#27265f"/>
        <path id="Path_78790" data-name="Path 78790" d="M609.577,73.093a2.781,2.781,0,0,0,3,2.47,4.52,4.52,0,0,0,2.792-1.01v1.579a5.767,5.767,0,0,1-2.894.755,4.125,4.125,0,0,1-4.371-4.244,4.047,4.047,0,0,1,4.04-4.244,3.626,3.626,0,0,1,3.684,3.921,4.883,4.883,0,0,1-.051.738h-6.2Zm.034-1.18h4.778a2.2,2.2,0,0,0-2.292-2.156A2.484,2.484,0,0,0,609.611,71.914Z" transform="translate(-577.673 -64.784)" fill="#27265f"/>
        <path id="Path_78791" data-name="Path 78791" d="M740.9,32.106V25.8h1.562v6.145a6.826,6.826,0,0,0,.458,3.081,2.932,2.932,0,0,0,2.826,1.434,2.854,2.854,0,0,0,2.792-1.434,6.4,6.4,0,0,0,.441-3.013V25.8h1.511v6.128a7.426,7.426,0,0,1-.789,4.125,4.615,4.615,0,0,1-4.04,1.867,4.55,4.55,0,0,1-4.006-1.867A7.606,7.606,0,0,1,740.9,32.106Z" transform="translate(-699.202 -25.8)" fill="#27265f"/>
        <path id="Path_78792" data-name="Path 78792" d="M871.1,25.8h1.562V37.733H871.1Z" transform="translate(-818.351 -25.8)" fill="#27265f"/>
      </g>
    </g>
    <g id="Group_105704" data-name="Group 105704" transform="translate(0 0.043)">
      <circle id="Ellipse_569" data-name="Ellipse 569" cx="8.852" cy="8.852" r="8.852" transform="translate(0 0.972)" fill="#27265f"/>
      <g id="Group_105703" data-name="Group 105703" transform="translate(4.783)">
        <g id="Group_105698" data-name="Group 105698">
          <path id="Path_78793" data-name="Path 78793" d="M73.246.124a.631.631,0,0,0-.424-.068c-.348.085-.772.7-1.01.976a7.138,7.138,0,0,0-.823,1.2,9.8,9.8,0,0,0-.637,6.943,26.889,26.889,0,0,0,1.383,4.337l2.351.025a6.689,6.689,0,0,0,.518-1.349c.153-.441.306-.874.441-1.316a20.379,20.379,0,0,0,.586-2.359,11.005,11.005,0,0,0,.119-3.8,7.5,7.5,0,0,0-1.01-2.775C74.494,1.533,73.866.4,73.246.124Zm-.306,6.442A1.341,1.341,0,1,1,74.29,5.234,1.338,1.338,0,0,1,72.941,6.566Z" transform="translate(-68.854 -0.043)" fill="#fff"/>
          <path id="Path_78794" data-name="Path 78794" d="M125.1,129.811h0a23.245,23.245,0,0,0,1.027-2.911,5.2,5.2,0,0,1,1.146,1.9,2.536,2.536,0,0,1,.1,1.01,5.69,5.69,0,0,1-.823,2.376.1.1,0,0,1-.17-.051,4.642,4.642,0,0,0,0-.687,1.542,1.542,0,0,0-.484-1.027A2.384,2.384,0,0,0,125.1,129.811Z" transform="translate(-119.265 -116.133)" fill="#fff"/>
          <path id="Path_78795" data-name="Path 78795" d="M57.339,131.115a4.648,4.648,0,0,0,0,.687.092.092,0,0,1-.17.051,5.341,5.341,0,0,1-.806-2.376,2.423,2.423,0,0,1,.1-.993,5.048,5.048,0,0,1,1.163-1.884,22.78,22.78,0,0,0,.993,2.911h0a3.239,3.239,0,0,0-.789.569A1.722,1.722,0,0,0,57.339,131.115Z" transform="translate(-56.35 -115.859)" fill="#09f"/>
          <path id="Path_78796" data-name="Path 78796" d="M71.333,1.4s-3.616,3.87.17,13.376H70.475S65.773,5.8,71.333,1.4Z" transform="translate(-67.577 -1.285)" fill="#09f"/>
        </g>
        <g id="Group_105702" data-name="Group 105702" transform="translate(1.357 14.007)">
          <path id="Path_78797" data-name="Path 78797" d="M105.9,200.4Z" transform="translate(-103.052 -197.403)"/>
          <path id="Path_78798" data-name="Path 78798" d="M72.925,169.362a.734.734,0,1,1,1.375-.348,1.24,1.24,0,0,1-.2.552,2.009,2.009,0,0,0-.2.738v.17a1.974,1.974,0,0,0,1.2,1.816.038.038,0,0,0,.051-.051,1.141,1.141,0,0,1-.068-.407,1.264,1.264,0,0,1,.5-.976c.323-.272.637-.518.925-.806a4.159,4.159,0,0,0,.823-.908,2.659,2.659,0,0,0,.373-1.366,2.707,2.707,0,0,0-1.579-2.453,2.569,2.569,0,0,0-1.511-.2,2.671,2.671,0,0,0-2.19,3.268,2.5,2.5,0,0,0,.187.518C72.721,169.074,72.84,169.21,72.925,169.362Z" transform="translate(-72.343 -165.083)" fill="#f49021"/>
          <g id="Group_105701" data-name="Group 105701">
            <g id="Group_105700" data-name="Group 105700">
              <g id="Group_105699" data-name="Group 105699" clip-path="url(#clip-path)">
                <path id="Path_78799" data-name="Path 78799" d="M87.192,169.344s2.606-1.9,1.01-4.244l3.183.187-.034,7.537-4.464-.017S85.851,170.031,87.192,169.344Z" transform="translate(-85.303 -165.099)" fill="#f05a2b"/>
              </g>
            </g>
          </g>
        </g>
      </g>
    </g>
  </g>
</svg>
