<svg xmlns="http://www.w3.org/2000/svg" width="49.729" height="57.423" viewBox="0 0 49.729 57.423">
  <g id="Group_105695" data-name="Group 105695" transform="translate(-4011.635 -5854.437)">
    <g id="Group_105693" data-name="Group 105693" transform="translate(4011.635 5854.437)">
      <path id="Path_78779" data-name="Path 78779" d="M49.729,43.068V14.356L24.864,0,0,14.356V43.068L24.864,57.423Z" fill="#6faf97"/>
      <path id="Path_78780" data-name="Path 78780" d="M56.386,64.6,77.317,74.936V89.12l-9.331,5.4-20.041-11,.4-1.321-7.982-4.02L38.7,73.472l7.982-4.565,5.484,3.072Z" transform="translate(-27.589 -46.052)" fill="#518b75"/>
      <path id="Path_78781" data-name="Path 78781" d="M30.639,9.3,8.1,22.335V48.377L30.639,61.383,53.177,48.377V22.335ZM51.77,47.544l-21.132,12.2L9.507,47.544v-24.4l21.132-12.2,21.132,12.2Z" transform="translate(-5.774 -6.63)" fill="#fff"/>
      <path id="Path_78782" data-name="Path 78782" d="M40.195,79.6,29.6,83.706v3.5l10.595,4.106V87.7l-6.374-2.24,6.374-2.24Z" transform="translate(-21.101 -56.746)" fill="#fff"/>
      <path id="Path_78783" data-name="Path 78783" d="M105.5,91.314l10.595-4.106v-3.5L105.5,79.6v3.618l6.374,2.24L105.5,87.7Z" transform="translate(-75.209 -56.746)" fill="#fff"/>
      <path id="Path_78784" data-name="Path 78784" d="M76.614,64.6h2.728L73.628,83.521H70.9Z" transform="translate(-50.543 -46.052)" fill="#fff"/>
    </g>
  </g>
</svg>
