<svg id="react-navigation" xmlns="http://www.w3.org/2000/svg" width="68.515" height="41.65" viewBox="0 0 68.515 41.65">
  <path id="Path_78748" data-name="Path 78748" d="M122.876,15.619l-.021-.4-.021-.125.042-.771v-.583l-.021-.583-.021-.187v-.187l-.042-.4-.125-.771-.167-.771-.167-.562-.312-.916L121.876,9l-.083-.187-.062-.167-.083-.187-.167-.333-.083-.167-.1-.187-.1-.167L121,7.268l-.1-.187-.437-.646-.229-.312-.125-.146-.1-.146-.146-.167-.125-.146-.541-.583-.4-.417-.167-.146-.125-.125-.437-.375-.167-.125-.146-.1-.458-.333-.167-.1-.167-.1-.146-.1-.167-.1L116,2.52l-.5-.25-.479-.25-.187-.1-.646-.375-.687-.354-.187-.083-.167-.062-.187-.083L112.776.9l-.167-.062-.729-.25L111.3.417,111.11.375l-.167-.042-.208-.042L110.547.25,110.36.208l-.375-.062-.208-.021L109.61.1l-.229-.021-.208-.021-.167-.021L108.423,0h-.979l-.208.021-.208.021h-.187l-.4.042-.187.042-.187.021-.208.042-.208.042-.167.021-.562.125-.75.208-.75.25-.541.229-.187.083-.167.062-.687.354-.5.292-.167.125-.146.1-.375.25-.541.271-.5.292-.167.125-.146.1-.167.1-.146.1-.167.1-.312.229-.146.125-.146.1-.167.146-.146.125-.292.25-.146.146-.125.1-.292.292-.146.146-.125.125-.146.146-.375.437-.125.167-.125.146-.354.479-.333.479-.1.187-.1.167-.1.146-.458.854-.167.354-.375.916-.125.375L93.8,10.2l-.062.167-.1.4-.042.187-.042.167-.083.4-.146.771-.021.187-.021.167-.021.229-.021.167-.042.771v.771l.021.4.021.146-.021.25-.021.208v1.145l.021.4.1.937.062.4.083.375.021.167.062.208.042.167.167.562.25.75.292.729.25.541.1.167.083.167.187.354.1.187.083.146.1.187.125.167.083.146.229.333.125.167.375.458.375.437.146.146.125.125.292.292.146.146.125.125.146.146.583.5.167.125.125.1.187.125.167.1.146.1.167.1.167.1.146.1.167.1.666.375.479.229.458.312.167.1.5.292.333.187.146.083.208.1.187.083.167.083.541.229.187.062.167.062.187.062.187.062.167.062.583.167.771.167.771.125.583.062.791.042h.6l.771-.042.771-.083.583-.1.771-.167.75-.208.562-.187.375-.146.167-.062.208-.083.167-.062.687-.333.666-.375.167-.125.167-.1.354-.229.25-.125.187-.1.146-.083.5-.292.167-.125.167-.1.167-.1.146-.1.167-.1.312-.229.437-.354.292-.25.146-.146.125-.125.146-.146.417-.4.146-.146.125-.146.125-.125.25-.292.25-.312.333-.458.333-.479.1-.187.1-.167.1-.146.292-.521.25-.521.167-.375.146-.354.062-.187.062-.167.187-.562.167-.562.042-.187.042-.167.042-.208.042-.187.042-.167.1-.583.062-.583.021-.208.021-.167.021-.208V15.619Zm-3.624-9.2.1.146.125.146L119.69,7l.417.6.083.146.167.312.1.187.083.146.25.5.229.5.125.333.062.167-.146-.25-.1-.146-.083-.146-.125-.167-.083-.125-.1-.167-.1-.146-.1-.125-.208-.271-.1-.125-.125-.354-.083-.167-.062-.146-.146-.333-.083-.167-.062-.146-.167-.333-.1-.167-.042-.083Zm-1,1.229.333.312.1.1.229.25.208.229.1.125.062.146.083.292.042.146.042.167.125.458.146.771.062.437v.146l.021.167.021.292v1.041l-.021.271-.021.125-.021.167-.042.271-.4-.771-.146-.229-.062-.1-.229-.333-.083-.1-.062-.083-.375-.479-.1-.1-.208-.25-.1-.083-.042-.062-.1-.1-.083-.083-.062-.062-.25-.229-.062-.062L117,10.142l-.062-.042-.083-.062V9.954l-.021-.125-.021-.187-.042-.208V9.351l-.021-.146-.042-.125-.042-.187-.062-.229-.021-.1-.042-.125-.062-.187-.042-.125-.021-.083-.083-.25-.1-.229-.042-.1L115.983,7l-.312-.583-.292-.458-.125-.167.625.292.521.271.125.083.146.083.1.062.125.083.146.083.25.167.1.083.146.1.229.187.229.187.1.1ZM116.9,18.805v-.062l-.021-.271V18.41l-.042-.333-.021-.062-.021-.187-.021-.1-.021-.1-.062-.229-.021-.062-.021-.042-.021-.083-.042-.1-.021-.1-.042-.083-.021-.083-.042-.083-.021-.083-.021-.042-.021-.062-.042-.1-.021-.083-.042-.083v-.042l-.021-.042-.062-.167-.021-.042-.021-.083-.021-.042-.042-.167-.021-.042-.021-.042V15.6l-.021-.1v-.042l-.021-.146v-.187h.042V15.1h0v-.229l.021-.062v-.042l.062-.25.021-.042.021-.083.021-.042.021-.083.083-.25v-.042l.021-.062.312-1.1.021-.167.021-.042.021-.167.021-.083.167-.687v-.437l.146.125.062.062.083.083.062.062.062.062.1.083.208.229.083.083.333.417.062.083.083.1.187.271.187.292.354.646.042.1.062.125.229.583.042.1.062.146.062.208-.042.1-.083.271-.229.583-.042.083-.062.146-.229.437-.354.6-.125.187-.062.1-.125.167-.062.062-.229.292-.208.229-.062.062-.083.083-.062.062-.062.062-.083.1-.146.125-.083.083-.042.021v-.1Zm-.958-3.707.062.021h-.812v.375l.021.062v.021l.021.1v.083l.021.062.021.083.042.125.042.167.021.021.021.1.062.187.021.062.042.083.021.042.042.083.021.062.062.187.021.083.042.1.021.083.042.1.021.083.083.312.021.1.021.1.021.229.021.062.021.167v.062l.021.271v.937l-.146.1-.083.042-.062.042-.333.187-.083.021-.083.042-.479.208-.771.25-.083.021-.1.042-.646.146-.042.021h-.083l-1.02.25-.042.021-.062.021-.021.021-.062.021-.021.021h-.021l-.042.042-.042.021-.229.146-.021.021-.021.021-.021.021-.021.021-.021.021-.021.021-.083.083-.062.042-.042.042-.042.042-.042.062-.146.146-.021.042-.125.125-.062.083-.646.687-.1.083-.042.042-.1.1-.417.354-.541.4-.208.125-.083.062-.042.021-.1.062-.146.062-.1.062-.125-.062-.062-.042-.167-.083-.062-.042-.083-.042-.042-.021-.083-.062-.062-.042-.083-.062-.125-.083-.062-.042-.125-.1-.062-.042-.437-.354-.062-.062-.062-.062-.062-.083-.042-.042-.1-.1-.083-.083-.062-.062-.083-.1-.666-.729-.021-.021-.1-.1-.042-.062-.062-.042-.083-.083-.021-.021-.042-.042-.062-.042-.021-.021-.062-.042-.062-.062L104.7,21.3l-.062-.042h-.021l-.062-.042h-.021l-.021-.021-.062-.021-.042-.021-.062-.021-.1-.042-.666-.167h-.208l-.5-.1L102.8,20.8l-.146-.021-.083-.021-.1-.021-.062-.021h-.042l-.146-.042h-.042l-.4-.125-.771-.312-.562-.292-.062-.042-.083-.042-.187-.125v-.791l.021-.146v-.1l.083-.625.021-.042.021-.167.021-.042.021-.083.021-.062v-.062l.021-.062v-.062l.021-.062v-.042l.042-.146V17.2l.042-.1.021-.062.042-.125.042-.146.062-.208v-.042l.021-.042v-.042l.021-.042v-.042l.021-.021.062-.208.021-.021.1-.375V15.7l.021-.125v-.021l.021-.083v-.646l-.021-.062v-.021l-.146-.562-.021-.042-.042-.167-.021-.021v-.042l-.021-.042v-.042l-.021-.042-.021-.083-.042-.083v-.042l-.021-.083-.021-.083-.021-.042-.021-.062-.042-.083-.021-.083-.042-.1-.021-.083-.021-.042-.021-.083-.021-.083-.062-.271-.021-.083-.021-.187-.021-.1-.042-.312v-.062l-.021-.187v-.916l.083-.042.083-.062.562-.312.083-.021.083-.042.146-.062.083-.042L101.3,10l.042-.021.125-.042.625-.208.1-.021.1-.042.083-.021.042-.021.1-.021.042-.021.125-.021.042-.021.875-.187h.042l.333-.083v-.1l.187-.062.021-.021.083-.021.021-.021.062-.021.125-.083.042-.021.125-.083.021-.021.083-.062.021-.021L104.8,8.7l.042-.042.021-.021.083-.083.062-.042.042-.062.062-.042.042-.062,1-1.083.062-.062.042-.042.1-.1.458-.375.083-.021.125-.1.062-.042.083-.062.083-.062.167-.1.042-.021.083-.062.042-.021.167-.1.062-.021.1-.062.1-.042L108.09,6l.417.229.083.062.083.042.083.062.229.167.1.083.083.062.1.083.083.062.271.229.1.1.042.042.042.062.042.042.4.4.208.25.042.021.021.021.271.292.021.021.125.125.021.021.1.1.021.021.062.062.021.042.1.062.021.021.062.042.021.021.083.062.062.062L111.61,9l.062.042h.021l.021.021h.021l.021.021.062.021.042.021.146.042.062.021.5.125h.042l.666.146.083.021.1.021.666.187.083.042.167.042.042.021.083.021.062.021.083.021.312.125.083.042.083.021.437.229.417.25v1.062l-.1.771-.021.042-.021.125-.021.083-.021.083-.062.25v.042l-.083.292-.021.062-.083.229V13.6l-.042.083-.1.354-.021.042-.021.083-.021.042-.125.437v.021l-.021.125h0v.271h.75Zm-.083,5.748-.021.125-.021.083-.021.125-.146.5-.021.083-.042.146-.146.4-.042.083-.062.146-.083.208-.1.187-.062.125-.229.417-.062.1-.062.125-.187.292-.062.083-.083.125-.146.208-.229.292-.271.292-.208.042-.25.042-.146.042-.1.021h-.1l-.146.021-.6.042h-.958l-.312-.021-.1-.021-.146-.021-.083-.021-.146-.021-.292-.062-.083-.021-.125-.021-.083-.021-.146-.021-.562-.167.1-.062.437-.312.062-.062.042-.021.146-.1.083-.042.062-.062.083-.062.062-.042.062-.042.083-.083.1-.083.042-.042.771-.812.062-.083.125-.125.062-.083.312-.312.021-.021.021-.021.021-.021.021-.021.187-.125.042-.021.021-.021.062-.021.021-.021.062-.021.021-.021.729-.187h.042l.187-.042.042-.021.292-.062.083-.021.1-.021.042-.021.083-.021.1-.042.083-.021.541-.167.083-.042.042-.021.1-.042.042-.021.625-.271.083-.042.042-.021Zm-8.872,3.894-.521.167-.083.021-.125.042-.083.021-.125.042-.4.083h-.1l-.125.021-.229.021-.125.021h-.083l-.271.021h-.958l-.229-.021-.125-.021-.146-.021-.625-.1-.25-.062-.292-.312-.229-.292-.229-.312-.271-.417-.083-.1-.1-.208-.083-.125-.167-.312-.187-.4-.042-.1-.062-.125-.146-.4-.021-.083-.021-.125-.1-.4-.021-.083-.042-.125-.042-.208.229.125.062.021.042.021.562.229.1.042.042.021.083.021.062.021.521.167h.062l.125.042h.042l.062.021.1.021.062.021.146.021.062.021.646.146h.042l.5.146.042.021.062.021.042.021h.021l.062.042h.021l.062.042.042.042.062.042.042.042.021.021.833.9.083.1.479.479.666.562.062.042.083.083.229.167.083.062.062.042.125.062ZM100.239,9.392l.042-.25.062-.187.021-.125.021-.083.062-.208.042-.1.187-.521.229-.5.042-.083.062-.146.167-.312.187-.312.062-.125.354-.5.146-.187.083-.1.25-.292.062-.083.312-.062.646-.1.6-.042h.833l.562.042.083.021.146.021.521.083.083.021.125.021.1.021.125.021.375.1.083.042h.021l-.187.125-.042.021-.1.083-.062.042-.062.042-.125.1-.042.021-.146.125-.083.042-.062.062-.208.167-.125.125-.062.062-.042.042-1.312,1.4-.021.021-.042.042L104.2,8l-.021.021-.208.146-.062.021-.021.021-.062.021-.042.021-.167.042-.042.042-.062.021h-.062l-.062.021-.916.187-.042.021L102.3,8.6l-.812.229-.229.083-.042.021L101.051,9l-.042.021-.187.083-.083.042-.146.062-.083.042-.083.021Zm8.872-3.915.6-.187.083-.021.125-.042.1-.021.229-.042.083-.021h.083l.25-.042.687-.062h.833l.5.042.1.021.146.021.354.062.125.021.167.021.146.042.208.25.312.4.083.1.083.1.062.083.083.125.333.5.271.521.187.4.042.1.062.125.1.292.021.083.042.125.062.208.042.1.083.292.042.187.042.125h0l-.167-.083-.062-.021-.083-.042-.083-.021-.042-.021-.417-.167-.083-.021L114.9,9l-.583-.208-.062-.021-.125-.042h-.042l-.1-.042-.271-.062L113.63,8.6l-.854-.167h-.021l-.4-.125-.042-.021-.062-.021-.042-.021h-.021l-.021-.021h-.021l-.1-.062-.021-.021-.062-.042-.021-.021-.021-.021-.021-.021L111.839,8l-.229-.229-.021-.021-.25-.271-.083-.1-.042-.021-.6-.625-.042-.042-.042-.062-.042-.042-.1-.1-.354-.312-.083-.062-.1-.083-.583-.417Zm1.77-3.457.167.021.187.021.333.042.167.021.187.021.333.062.167.042.187.042h.125l.167.042.187.042.5.146.666.229.5.208.271.125.1.083.146.1.271.208.125.125.146.125.125.1.125.125.146.125.25.229.1.125.146.125.333.375.1.125.125.146.1.125.125.146.1.125.292.417.1.146.1.146.042.062-.167-.125-.1-.083-.271-.187-.146-.083-.125-.083-.146-.1-.146-.083-.125-.083-.562-.292-.708-.312-.562-.208-.146-.042-.125-.042-.146-.042-.167-.042-.1-.042-.146-.042L113.9,4.1l-.125-.1-.083-.083-.375-.312-.125-.1-.1-.083-.25-.187-.25-.167-.1-.083-.167-.1-.1-.083-.437-.25-.562-.292-.146-.062-.125-.062-.25-.1Zm-4.686-.979.187-.021.187-.042.354-.042h.187l.208-.021h1.1l.541.021.167.021.208.021.167.021.167.021.208.021.271.042h-.229l-.354.021h-.146l-.208.021h-.167l-.708.083-.271.042-.167-.021-.167-.021-.687-.083-.541-.042h-.541Zm-.625,1.916.146-.083.417-.167.125-.042L106.4,2.6l.437-.146.146-.042.167-.042.458-.125.437-.083.146.042.167.042.146.042.167.021.146.042.312.083.583.187.708.292.125.062.146.062.521.271.25.146.146.083.229.146.1.083.25.167.229.167.062.062-.292-.021h-.9l-.75.062-.25.042h-.083l-.146.021-.146.042-.187.042-.125.042-.083.021-.771.229-.125.042-.083.021-.312.125-.187.083-.354-.146-.125-.042-.083-.042-.208-.062-.083-.042-.458-.146-.125-.021-.1-.021-.125-.021-.1-.021-.6-.1-.146-.021-.083-.021-.625-.042H103.9l-.354.021.375-.292.354-.25.479-.292.666-.333Zm-7.5,3.228.4-.541.312-.417.333-.4.229-.25.125-.1.125-.146.125-.1.146-.146.125-.1.4-.333.125-.1.146-.125.125-.083.167-.125.146-.1.021-.021.208-.1.312-.125.167-.062.187-.083.5-.167.666-.187.5-.125.167-.021.187-.042.146-.021.167-.021.187-.042.5-.062h.167L105.341,2h.167l-.1.042-.146.083-.125.062-.729.375-.541.333-.4.271-.5.375-.229.187-.125.1-.1.083-.125.125-.208.187-.25.25-.062.021-.708.208-.583.208-.437.187-.146.083-.4.187-.562.312-.271.167-.541.375-.125.1-.062.042Zm-1,2.207.1-.1.229-.25.1-.1.125-.125L97.99,7.5l.229-.187.125-.1.125-.1.125-.083.125-.1.375-.271.354-.229.25-.146.146-.083.1-.062.4-.187.146-.083.229-.1.1-.042-.125.187-.083.146-.125.208-.25.458-.062.125-.042.083-.271.583-.208.583-.042.1-.042.1-.062.25-.021.1-.062.208L99.3,9.5l-.021.125L99.26,9.7,99.239,10l-.083.062-.1.083-.1.083-.146.1-.1.083-.062.042-.1.1-.146.125-.083.1-.062.042-.1.1-.083.083-.062.062-.083.083-.062.062-.1.125-.146.167-.271.354-.083.1-.062.083-.083.125-.062.1-.125.208-.083.125-.062.083-.333.6-.125.229-.021-.083v-.125l-.021-.167-.042-.708V11.87l.042-.583.021-.146.021-.167.042-.292.062-.312.021-.146.042-.146.042-.167.042-.125.042-.187.042-.125.042-.125.042-.187.083-.292.062-.146.021-.042.125-.146Zm2.124,3.02v.312l.062.479.021.083.021.187.021.1.021.1.062.271.021.1.021.042.021.083.042.1.021.083.042.1.021.083.062.187.021.083.042.083.021.062.021.042.021.083.021.042v.042l.021.042.042.167.021.042.083.333v.042l.021.083v.521l-.021.125v.021l-.042.146-.021.062-.042.125-.062.125v.042l-.021.042v.042l-.021.042-.021.062-.062.208v.042l-.062.208-.021.062-.042.125v.042l-.042.146v.042l-.021.083v.062l-.021.062v.062l-.021.062-.021.083-.021.042-.021.167-.021.042-.1.75v.1l-.021.146v.167h0l-.062-.062-.167-.146-.042-.062-.1-.1-.062-.062-.062-.062-.083-.083-.208-.229-.062-.083-.083-.1-.187-.25-.062-.083-.083-.1-.312-.479-.167-.312-.062-.1-.042-.083-.125-.25-.042-.1-.062-.146-.229-.583-.042-.125-.062-.146-.042-.167.062-.229.042-.125.042-.125.042-.125.292-.687.333-.625.062-.083.083-.125.125-.187.062-.1.125-.167.083-.1.187-.25.146-.167.062-.083.062-.062.083-.083.062-.062.083-.083.062-.062.062-.062.083-.1.146-.125.062-.062v.1ZM95.178,9.121l.312-.646L95.741,8l.1-.146.1-.167.083-.146.312-.458.312-.437.1-.125.125-.167.021-.021-.083.125-.25.479-.375.791-.187.479-.083.083-.312.417-.1.146-.1.125-.1.146-.1.167-.375.6Zm-.458,8.7-.25-.833-.125-.5-.146-.875-.042-.333V15.1l.062-.541.125-.687.146-.687.187-.666.062-.167.062-.187.042-.125.062-.146.062-.187.208-.458.229-.437-.021.229-.021.146-.042.646v.646l.042.771.021.167v.125l.042.312.042.167.021.125.125.6.042.146.021.125.042.125-.042.167-.042.146-.042.125-.1.437-.021.167-.021.125-.062.479-.021.146-.021.146-.042.479v.812l.021.312v.146l.021.187v.146l.021.167v.125l-.1-.208-.083-.146-.208-.458-.062-.146-.083-.167Zm2.145,6.019-.333-.437-.1-.146-.208-.292-.1-.146-.125-.167-.083-.146-.083-.146-.1-.167-.167-.312-.083-.167-.1-.167-.229-.5-.271-.666-.021-.042.042.083.062.146.1.167.1.146.1.146.083.125.1.167.1.146.1.125.208.271.125.146.021.042.062.208.083.187.062.146.292.646.333.625.021.042Zm.937-1.27-.1-.1-.458-.458-.4-.437-.042-.1-.146-.458-.146-.6-.021-.146-.042-.167-.062-.292-.042-.292-.021-.146v-.125l-.021-.167V18.93l-.021-.146v-.125l-.021-.312V17.6l.021-.417.021-.146.021-.146.021-.167.083.187.1.208.417.687.083.125.062.083.083.125.083.1.062.083.229.292.083.1.062.083.229.271.083.083.062.062.1.1.083.062.042.062.187.167.062.062.1.083.083.062.146.125.333.25.021.292.021.125v.062l.1.562.042.125.021.083.125.458.042.125.021.083.125.354.1.229.042.1.4.812.083.146.1.208.292.458.021.042h-.021l-.271-.125-.771-.375-.1-.062-.146-.083-.375-.229-.125-.083-.125-.083-.1-.083-.125-.083-.1-.083-.146-.1-.1-.083-.146-.1-.1-.083-.062-.1ZM105.07,28.2l-.687-.083-.666-.125-.666-.146-.5-.146-.167-.062-.187-.062-.146-.062-.167-.062-.187-.062-.479-.208-.146-.062-.229-.167-.271-.208-.125-.083-.1-.1-.167-.125-.125-.1-.25-.229-.125-.125-.125-.125-.1-.125-.25-.25-.229-.25-.125-.125-.417-.541-.187-.271-.208-.271-.062-.1.125.1.167.1.1.083.146.1.125.083.417.25.146.083.125.083.292.146.833.4.583.208.146.042.125.042.292.083.146.042.125.042h.021l.271.292.229.208.1.083.083.083.146.125.125.1.208.167.146.1.125.083.1.083.146.1.666.417.437.229.75.354.042.021Zm4.686,1-.729.083-.729.042h-.541l-.729-.042-.541-.062-.458-.083h.4l.708-.042.521-.062.187-.042.146-.021.062-.021.146.021.167.021.167.021.187.021.187.021.167.021.521.042h.479Zm.646-1.853-.417.167-.125.042-.146.062-.437.146-.146.042-.167.042-.458.125-.146.021-.167.042-.1.021-.333-.062-.771-.187-.583-.187-.271-.1-.167-.062-.4-.187-.791-.4-.375-.229-.125-.083-.146-.083-.1-.062-.1-.083-.125-.083-.1-.083-.1-.083h1.166l.271-.021h.125l.146-.021.229-.021.125-.021h.1l.479-.083.125-.042.083-.021.125-.042.083-.021.562-.167.125-.042.167-.062.146-.062.167-.062.229-.1.729.292.646.187.146.021.083.021.146.021.083.021.375.062.146.021.083.021.146.021.1.021.4.042h1.041l.375-.021-.125.083-.1.083-.125.1-.1.062-.146.1-.479.292-.125.062-.146.083-.521.271-.125.062Zm7.643-3.332-.187.271-.1.167-.083.125-.1.125-.125.167-.083.125-.1.125-.125.146-.458.5-.125.125-.125.125-.125.125-.125.1-.146.125-.125.125-.125.125-.271.208-.146.1-.146.125-.146.1-.042.021-.187.083-.646.271-.312.1-.167.042-.187.062-.5.146-.666.167-.5.083-.167.021-.187.042-.333.042-.541.021.146-.062.146-.083.125-.062.583-.292.146-.083.125-.062.417-.25.146-.083.125-.083.1-.062.146-.1.1-.062.146-.1.354-.292.125-.1.1-.083.125-.125.083-.083.229-.229.083-.1.187-.042.562-.167.583-.208.437-.187.833-.417.146-.083.125-.062.292-.167.146-.1.125-.083.146-.1.25-.187.1-.083Zm.729-1.9-.1.1-.229.229-.1.083-.25.229-.333.292-.125.083-.146.1-.25.167-.125.083-.1.062-.146.1-.25.146-.125.062-.146.083-.646.333-.25.1-.125.042-.062.021.146-.229.062-.083.083-.146.062-.1.25-.458.062-.125.062-.1.167-.354.042-.125.042-.083.187-.479.042-.125.021-.083.167-.583.021-.1.021-.083.062-.354.021-.1.042-.167.042-.354.062-.042.271-.208.1-.083.062-.042.187-.167.083-.083.146-.125.083-.1.062-.042.1-.1.083-.083.062-.062.25-.271.229-.292.062-.083.1-.125.062-.083.083-.125.125-.187.271-.437.25-.479.062-.125.062-.125.042.333.042.708v.583l-.042.75-.083.6-.125.6-.187.771-.146.437-.021.062-.167.187Zm2.374-1.52-.125.333-.4.833-.25.479-.1.146-.1.167-.083.146-.312.458-.333.437-.229.271-.042.062.1-.187.083-.146.083-.187.146-.292.229-.5.229-.562.062-.083.312-.417.208-.292.1-.125.1-.167.271-.458.083-.125Zm.771-5.206-.021.167-.021.167-.021.187-.062.333-.083.333-.042.187-.042.146-.042.187-.187.666-.229.646-.062.146-.062.167-.062.146-.083.146-.083.167-.062.146-.062.146.042-.271.062-.812v-.646l-.042-.771-.1-.771-.187-.875L120.4,15.1l.083-.25.167-.729.1-.75.021-.167.021-.125.021-.333v-1.1l-.021-.333-.021-.167V11l-.021-.187.167.354.062.146.083.167.042.125.146.354.167.479.25.833.167.666.083.521.083.687Z" transform="translate(-73.791)" fill="#7b61c1"/>
  <g id="Group_105679" data-name="Group 105679" transform="translate(0 33.466)">
    <path id="Path_78749" data-name="Path 78749" d="M1.229,166.182v2.249H0V162.6H1.708a2.957,2.957,0,0,1,1.77.437,1.559,1.559,0,0,1,.562,1.312,1.6,1.6,0,0,1-.292.916,1.779,1.779,0,0,1-.812.625c.875,1.312,1.458,2.166,1.708,2.541H3.27l-1.4-2.249Zm0-1h.4a1.605,1.605,0,0,0,.875-.187.689.689,0,0,0,.271-.625.628.628,0,0,0-.292-.583,1.628,1.628,0,0,0-.875-.167H1.229Z" transform="translate(0 -162.204)" fill="#7b61c1"/>
    <path id="Path_78750" data-name="Path 78750" d="M26.491,173.323a2.1,2.1,0,0,1-2.291-2.291,2.433,2.433,0,0,1,.562-1.729,1.981,1.981,0,0,1,1.562-.6,1.845,1.845,0,0,1,2,2.041v.583H25.429a1.205,1.205,0,0,0,.312.812,1.1,1.1,0,0,0,.812.292,3.123,3.123,0,0,0,.771-.083,3.613,3.613,0,0,0,.75-.271v.937a2.427,2.427,0,0,1-.687.229A3.74,3.74,0,0,1,26.491,173.323Zm-.167-3.749a.77.77,0,0,0-.6.25,1.137,1.137,0,0,0-.25.687h1.708a.975.975,0,0,0-.229-.687A.848.848,0,0,0,26.324,169.575Z" transform="translate(-19.16 -167.034)" fill="#7b61c1"/>
    <path id="Path_78751" data-name="Path 78751" d="M50.345,173.34l-.229-.6h-.042a2.074,2.074,0,0,1-.625.541,1.968,1.968,0,0,1-.854.146,1.368,1.368,0,0,1-1.02-.375,1.418,1.418,0,0,1-.375-1.041,1.139,1.139,0,0,1,.5-1.041,2.821,2.821,0,0,1,1.5-.375l.771-.021v-.187a.607.607,0,0,0-.687-.687,2.951,2.951,0,0,0-1.25.333l-.4-.833a3.618,3.618,0,0,1,1.708-.4,2.043,2.043,0,0,1,1.374.4,1.491,1.491,0,0,1,.479,1.187v2.978h-.854Zm-.354-2.083-.479.021a1.758,1.758,0,0,0-.791.187.619.619,0,0,0-.25.541c0,.333.187.521.583.521a.962.962,0,0,0,.687-.25.863.863,0,0,0,.25-.646Z" transform="translate(-37.37 -167.113)" fill="#7b61c1"/>
    <path id="Path_78752" data-name="Path 78752" d="M73.183,173.244c-1.4,0-2.083-.771-2.083-2.291a2.523,2.523,0,0,1,.562-1.749,2.062,2.062,0,0,1,1.624-.6,3.056,3.056,0,0,1,1.4.312l-.354.937a3.363,3.363,0,0,0-.541-.187,2.091,2.091,0,0,0-.5-.083c-.625,0-.958.458-.958,1.354,0,.875.312,1.312.958,1.312a2.1,2.1,0,0,0,.646-.1,3.176,3.176,0,0,0,.6-.292v1.041a1.692,1.692,0,0,1-.6.25A3.414,3.414,0,0,1,73.183,173.244Z" transform="translate(-56.293 -166.955)" fill="#7b61c1"/>
    <path id="Path_78753" data-name="Path 78753" d="M92.832,169.04a2.355,2.355,0,0,0,.771-.146v.916a2.584,2.584,0,0,1-1.125.208,1.374,1.374,0,0,1-1.062-.375,1.591,1.591,0,0,1-.333-1.1V166.4H90.5v-.541l.666-.417.354-.937h.771v.958h1.25v.916h-1.25v2.145a.446.446,0,0,0,.146.375A.518.518,0,0,0,92.832,169.04Z" transform="translate(-71.653 -163.709)" fill="#7b61c1"/>
    <path id="Path_78754" data-name="Path 78754" d="M125.485,168.431H123.9l-2.541-4.415h-.042c.042.771.083,1.333.083,1.666v2.749h-1.1V162.6h1.562l2.541,4.373h.021c-.042-.75-.062-1.291-.062-1.6V162.6h1.125Z" transform="translate(-95.247 -162.204)" fill="#7b61c1"/>
    <path id="Path_78755" data-name="Path 78755" d="M153.445,173.34l-.229-.6h-.042a2.074,2.074,0,0,1-.625.541,1.967,1.967,0,0,1-.854.146,1.368,1.368,0,0,1-1.02-.375,1.418,1.418,0,0,1-.375-1.041,1.139,1.139,0,0,1,.5-1.041,2.821,2.821,0,0,1,1.5-.375l.771-.021v-.187a.607.607,0,0,0-.687-.687,2.951,2.951,0,0,0-1.25.333l-.4-.833a3.618,3.618,0,0,1,1.708-.4,2.043,2.043,0,0,1,1.374.4,1.491,1.491,0,0,1,.479,1.187v2.978h-.854Zm-.354-2.083-.479.021a1.758,1.758,0,0,0-.791.187.619.619,0,0,0-.25.541c0,.333.187.521.583.521a.962.962,0,0,0,.687-.25.791.791,0,0,0,.25-.646Z" transform="translate(-119 -167.113)" fill="#7b61c1"/>
    <path id="Path_78756" data-name="Path 78756" d="M174.108,173.657,172.4,169.2h1.27l.854,2.541a5.12,5.12,0,0,1,.187.916h.021a4.769,4.769,0,0,1,.187-.916l.854-2.541h1.27l-1.708,4.457Z" transform="translate(-136.497 -167.43)" fill="#7b61c1"/>
    <path id="Path_78757" data-name="Path 78757" d="M197.6,161.3c0-.4.229-.6.666-.6s.666.208.666.6a.6.6,0,0,1-.167.437.686.686,0,0,1-.5.167C197.829,161.887,197.6,161.7,197.6,161.3Zm1.27,5.623h-1.229V162.47h1.229Z" transform="translate(-156.449 -160.7)" fill="#7b61c1"/>
    <path id="Path_78758" data-name="Path 78758" d="M211.34,168.783v.625l-.708.187a1.239,1.239,0,0,1,.187.666,1.369,1.369,0,0,1-.5,1.125,2.141,2.141,0,0,1-1.4.4l-.229-.021-.187-.021a.426.426,0,0,0-.187.312c0,.167.229.271.666.271h.75a1.764,1.764,0,0,1,1.125.312,1.162,1.162,0,0,1,.4.937,1.336,1.336,0,0,1-.646,1.208,3.371,3.371,0,0,1-1.874.437,2.53,2.53,0,0,1-1.437-.333,1.022,1.022,0,0,1-.5-.916.912.912,0,0,1,.25-.666,1.447,1.447,0,0,1,.729-.4,1.007,1.007,0,0,1-.333-.271.584.584,0,0,1-.146-.4.567.567,0,0,1,.146-.417,1.989,1.989,0,0,1,.437-.333,1.389,1.389,0,0,1-.562-.479,1.578,1.578,0,0,1,.271-1.916,2.02,2.02,0,0,1,1.354-.4,3.818,3.818,0,0,1,.437.042c.167.021.292.042.333.042Zm-3.457,5.1a.45.45,0,0,0,.25.4,1.3,1.3,0,0,0,.687.146,2.288,2.288,0,0,0,1.02-.187.563.563,0,0,0,.375-.5.365.365,0,0,0-.229-.354,1.822,1.822,0,0,0-.687-.1h-.625a.948.948,0,0,0-.562.167A.574.574,0,0,0,207.883,173.885Zm.437-3.644a.969.969,0,0,0,.167.583.7.7,0,0,0,1,0,.969.969,0,0,0,.167-.583c0-.541-.229-.812-.666-.812C208.549,169.45,208.32,169.72,208.32,170.241Z" transform="translate(-163.733 -167.034)" fill="#7b61c1"/>
    <path id="Path_78759" data-name="Path 78759" d="M233.745,173.34l-.229-.6h-.042a2.074,2.074,0,0,1-.625.541,1.967,1.967,0,0,1-.854.146,1.368,1.368,0,0,1-1.02-.375,1.418,1.418,0,0,1-.375-1.041,1.139,1.139,0,0,1,.5-1.041,2.821,2.821,0,0,1,1.5-.375l.771-.021v-.187a.607.607,0,0,0-.687-.687,2.951,2.951,0,0,0-1.25.333l-.4-.833a3.618,3.618,0,0,1,1.708-.4,2.043,2.043,0,0,1,1.374.4,1.491,1.491,0,0,1,.479,1.187v2.978h-.854Zm-.354-2.083-.479.021a1.758,1.758,0,0,0-.791.187.619.619,0,0,0-.25.541c0,.333.187.521.583.521a.962.962,0,0,0,.687-.25.863.863,0,0,0,.25-.646Z" transform="translate(-182.577 -167.113)" fill="#7b61c1"/>
    <path id="Path_78760" data-name="Path 78760" d="M255.932,169.04a2.355,2.355,0,0,0,.771-.146v.916a2.583,2.583,0,0,1-1.125.208,1.374,1.374,0,0,1-1.062-.375,1.591,1.591,0,0,1-.333-1.1V166.4H253.6v-.541l.666-.417.354-.937h.771v.958h1.25v.916h-1.25v2.145a.446.446,0,0,0,.146.375A.584.584,0,0,0,255.932,169.04Z" transform="translate(-200.787 -163.709)" fill="#7b61c1"/>
    <path id="Path_78761" data-name="Path 78761" d="M272.6,161.3c0-.4.229-.6.666-.6s.666.208.666.6a.6.6,0,0,1-.167.437.686.686,0,0,1-.5.167C272.829,161.887,272.6,161.7,272.6,161.3Zm1.27,5.623h-1.229V162.47h1.229Z" transform="translate(-215.83 -160.7)" fill="#7b61c1"/>
    <path id="Path_78762" data-name="Path 78762" d="M287.832,171.012a2.362,2.362,0,0,1-.583,1.708,2.056,2.056,0,0,1-1.6.625,2.149,2.149,0,0,1-1.125-.292,1.774,1.774,0,0,1-.75-.812,2.881,2.881,0,0,1-.271-1.229,2.447,2.447,0,0,1,.562-1.708,2.119,2.119,0,0,1,1.6-.6,2.143,2.143,0,0,1,1.125.271,1.774,1.774,0,0,1,.75.812A2.336,2.336,0,0,1,287.832,171.012Zm-3.082,0a1.882,1.882,0,0,0,.208,1,.919.919,0,0,0,1.416,0,2.5,2.5,0,0,0,0-2,.919.919,0,0,0-1.416,0A2.1,2.1,0,0,0,284.75,171.012Z" transform="translate(-224.46 -167.034)" fill="#7b61c1"/>
    <path id="Path_78763" data-name="Path 78763" d="M313.323,173.182h-1.229v-2.624a1.4,1.4,0,0,0-.167-.729.6.6,0,0,0-.541-.25.8.8,0,0,0-.729.333,2.162,2.162,0,0,0-.229,1.125v2.1H309.2v-4.457h.937l.167.562h.062a1.39,1.39,0,0,1,.562-.479,1.946,1.946,0,0,1,.812-.167,1.612,1.612,0,0,1,1.187.417,1.658,1.658,0,0,1,.4,1.208Z" transform="translate(-244.808 -166.955)" fill="#7b61c1"/>
  </g>
</svg>
