<svg xmlns="http://www.w3.org/2000/svg" width="51.735" height="49.146" viewBox="0 0 51.735 49.146">
  <g id="Group_105685" data-name="Group 105685" transform="translate(-3624 -5838.664)">
    <g id="Group_105683" data-name="Group 105683" transform="translate(3624 5838.664)">
      <path id="Path_78777" data-name="Path 78777" d="M35.873,45.344a3.692,3.692,0,0,0-.4-7.361h-.132a3.669,3.669,0,0,0-2.489,6.249c-2.251,4.422-5.667,7.626-10.8,10.327A17.628,17.628,0,0,1,11.327,56.6,9.2,9.2,0,0,1,4.6,52.705a9.682,9.682,0,0,1-.53-10.221,15.423,15.423,0,0,1,4.475-5.269A31.1,31.1,0,0,1,7.7,33.852C-1.86,40.763-.854,50.11,2.032,54.532,4.2,57.816,8.626,59.855,13.5,59.855a16.708,16.708,0,0,0,3.945-.45A25.172,25.172,0,0,0,35.873,45.344Zm11.6-8.156c-5-5.852-12.392-9.082-20.813-9.082H25.6a3.617,3.617,0,0,0-3.23-1.986h-.132a3.659,3.659,0,0,0-3.548,3.813,3.7,3.7,0,0,0,3.681,3.548H22.5a3.665,3.665,0,0,0,3.23-2.251h1.192a25.142,25.142,0,0,1,14.034,4.29,17.764,17.764,0,0,1,6.991,8.42,9.105,9.105,0,0,1-.132,7.758,9.687,9.687,0,0,1-9.029,5.4,17.183,17.183,0,0,1-6.461-1.377,36.349,36.349,0,0,1-2.966,2.383,20.194,20.194,0,0,0,8.5,2.039c6.329,0,10.989-3.5,12.763-6.991C52.529,49.369,52.4,42.775,47.471,37.188ZM14,46.456A3.681,3.681,0,0,0,17.682,50h.132a3.682,3.682,0,0,0-.132-7.361h-.132a1.312,1.312,0,0,0-.45.053,24.087,24.087,0,0,1-3.416-14.617,17.751,17.751,0,0,1,3.892-10.221c1.907-2.436,5.587-3.628,8.1-3.681,6.991-.132,9.956,8.553,10.142,12.048.847.185,2.3.662,3.283.98C38.309,16.534,31.716,11,25.414,11c-5.931,0-11.386,4.29-13.557,10.592-3.019,8.42-1.059,16.523,2.621,22.931A3.1,3.1,0,0,0,14,46.456Z" transform="translate(-0.027 -11)" fill="#764abc"/>
    </g>
  </g>
</svg>
