<svg xmlns="http://www.w3.org/2000/svg" width="72.515" height="27.846" viewBox="0 0 72.515 27.846">
  <g id="redux-pertsist" transform="translate(-0.162)">
    <g id="Group_105680" data-name="Group 105680" transform="translate(0.162 0.696)">
      <path id="Path_78764" data-name="Path 78764" d="M8.48,12.978a.859.859,0,0,0-.1-1.713H8.354a.848.848,0,0,0-.821.891.869.869,0,0,0,.251.571,5.472,5.472,0,0,1-2.506,2.409,4.081,4.081,0,0,1-2.492.473,2.137,2.137,0,0,1-1.559-.9A2.258,2.258,0,0,1,1.1,12.323,3.527,3.527,0,0,1,2.145,11.1c-.056-.195-.153-.543-.195-.78C-.278,11.934-.041,14.106.627,15.136a3.162,3.162,0,0,0,2.659,1.239,3.459,3.459,0,0,0,.919-.111A5.866,5.866,0,0,0,8.48,12.978Zm2.7-1.893A6.233,6.233,0,0,0,6.335,8.968H6.085a.842.842,0,0,0-.752-.459H5.305a.848.848,0,0,0-.821.891.86.86,0,0,0,.863.821h.028a.886.886,0,0,0,.752-.515h.278a5.727,5.727,0,0,1,3.258,1,4.115,4.115,0,0,1,1.629,1.963,2.106,2.106,0,0,1-.028,1.81,2.265,2.265,0,0,1-2.1,1.253,3.91,3.91,0,0,1-1.5-.32,7.611,7.611,0,0,1-.7.557,4.726,4.726,0,0,0,1.977.473A3.28,3.28,0,0,0,11.9,14.816,3.447,3.447,0,0,0,11.181,11.084ZM3.4,13.242a.86.86,0,0,0,.863.821h.028a.848.848,0,0,0,.821-.891.86.86,0,0,0-.863-.821H4.219a.307.307,0,0,0-.111.014,5.577,5.577,0,0,1-.794-3.4,4.072,4.072,0,0,1,.9-2.381A2.654,2.654,0,0,1,6.1,5.724C7.728,5.7,8.41,7.715,8.452,8.522a6.756,6.756,0,0,1,.766.237C9.05,6.281,7.519,5,6.043,5a3.491,3.491,0,0,0-3.16,2.464A6.283,6.283,0,0,0,3.509,12.8.669.669,0,0,0,3.4,13.242Z" transform="translate(-0.162 -5)" fill="#764abc"/>
    </g>
    <g id="Group_105682" data-name="Group 105682" transform="translate(17.265)">
      <g id="Group_105681" data-name="Group 105681">
        <path id="Path_78765" data-name="Path 78765" d="M126.823,12.331v4.386H124.4V5.3h3.328a5.634,5.634,0,0,1,3.439.849,3.046,3.046,0,0,1,1.114,2.576,3.019,3.019,0,0,1-.557,1.8,3.6,3.6,0,0,1-1.573,1.225c1.74,2.562,2.854,4.219,3.383,4.97h-2.687l-2.729-4.386h-1.295Zm0-1.963h.78a3.039,3.039,0,0,0,1.7-.376,1.359,1.359,0,0,0,.543-1.2,1.233,1.233,0,0,0-.557-1.156,3.448,3.448,0,0,0-1.726-.348h-.738Z" transform="translate(-124.205 -4.562)" fill="#303030"/>
        <path id="Path_78766" data-name="Path 78766" d="M199.583,32.364a4.506,4.506,0,0,1-3.3-1.17,4.413,4.413,0,0,1-1.183-3.3,4.843,4.843,0,0,1,1.1-3.4,3.932,3.932,0,0,1,3.035-1.2,3.805,3.805,0,0,1,2.882,1.058,4.013,4.013,0,0,1,1.03,2.91v1.156h-5.639a2.282,2.282,0,0,0,.6,1.587,2.137,2.137,0,0,0,1.573.571,6.341,6.341,0,0,0,1.49-.167,7.015,7.015,0,0,0,1.476-.529v1.866a5.417,5.417,0,0,1-1.337.459A7.626,7.626,0,0,1,199.583,32.364Zm-.334-7.351a1.5,1.5,0,0,0-1.183.487,2.2,2.2,0,0,0-.487,1.364h3.341a2.036,2.036,0,0,0-.459-1.364A1.535,1.535,0,0,0,199.249,25.013Z" transform="translate(-185.062 -20.056)" fill="#303030"/>
        <path id="Path_78767" data-name="Path 78767" d="M266.3,12.308a2.848,2.848,0,0,1-2.423-1.2A5.511,5.511,0,0,1,263,7.8a5.45,5.45,0,0,1,.891-3.341,2.924,2.924,0,0,1,2.464-1.2,2.874,2.874,0,0,1,2.52,1.281h.084a9.24,9.24,0,0,1-.181-1.74V0h2.395V12.155h-1.824l-.459-1.128h-.1A2.75,2.75,0,0,1,266.3,12.308Zm.835-1.893a1.613,1.613,0,0,0,1.337-.529,3.049,3.049,0,0,0,.459-1.81V7.811a3.563,3.563,0,0,0-.432-2.019,1.628,1.628,0,0,0-1.406-.613,1.388,1.388,0,0,0-1.239.682,3.593,3.593,0,0,0-.446,1.963,3.456,3.456,0,0,0,.446,1.935A1.462,1.462,0,0,0,267.135,10.414Z" transform="translate(-243.508)" fill="#303030"/>
        <path id="Path_78768" data-name="Path 78768" d="M345.437,33.33l-.32-1.114h-.125a2.5,2.5,0,0,1-1.086.947,3.7,3.7,0,0,1-1.6.334,3.091,3.091,0,0,1-2.325-.821,3.321,3.321,0,0,1-.78-2.367V24.6h2.381v5.1a2.488,2.488,0,0,0,.334,1.42,1.215,1.215,0,0,0,1.072.473,1.622,1.622,0,0,0,1.448-.668,4.184,4.184,0,0,0,.446-2.214V24.6h2.381v8.73Z" transform="translate(-309.099 -21.175)" fill="#303030"/>
        <path id="Path_78769" data-name="Path 78769" d="M409.752,28.874,406.939,24.6h2.7l1.7,2.785,1.712-2.785h2.7l-2.84,4.274,2.979,4.455h-2.715l-1.838-2.993L409.5,33.33h-2.7Z" transform="translate(-367.287 -21.175)" fill="#303030"/>
        <path id="Path_78770" data-name="Path 78770" d="M131.284,120.434a3.809,3.809,0,0,1-1.128,2.952,4.548,4.548,0,0,1-3.2,1.044h-.863v3.787H123V116.8h3.954a4.825,4.825,0,0,1,3.244.947A3.374,3.374,0,0,1,131.284,120.434Zm-5.207,1.49h.557a1.5,1.5,0,0,0,1.1-.39,1.407,1.407,0,0,0,.4-1.072c0-.766-.432-1.156-1.281-1.156h-.794v2.617Z" transform="translate(-123 -100.538)" fill="#303030"/>
        <path id="Path_78771" data-name="Path 78771" d="M196.164,143.447a4.788,4.788,0,0,1-3.439-1.17,4.384,4.384,0,0,1-1.225-3.341,4.829,4.829,0,0,1,1.128-3.439,5.023,5.023,0,0,1,6.321-.153,3.979,3.979,0,0,1,1.086,3.007v1.364h-5.458a1.49,1.49,0,0,0,.543,1.17,2.129,2.129,0,0,0,1.392.418,6.865,6.865,0,0,0,1.476-.153,7.725,7.725,0,0,0,1.462-.515v2.2a4.829,4.829,0,0,1-1.49.5A12.872,12.872,0,0,1,196.164,143.447Zm-.181-7.087a1.3,1.3,0,0,0-.9.334,1.626,1.626,0,0,0-.432,1.072h2.631a1.542,1.542,0,0,0-.362-1.03A1.217,1.217,0,0,0,195.983,136.361Z" transform="translate(-181.963 -115.602)" fill="#303030"/>
        <path id="Path_78772" data-name="Path 78772" d="M270.56,134.2a4.34,4.34,0,0,1,.752.056l.167.028-.278,2.882a4.908,4.908,0,0,0-1.044-.1,1.942,1.942,0,0,0-1.448.459,1.776,1.776,0,0,0-.459,1.323v4.358H265.2v-8.855h2.269l.473,1.42h.153a3.012,3.012,0,0,1,1.072-1.142A2.619,2.619,0,0,1,270.56,134.2Z" transform="translate(-245.402 -115.516)" fill="#303030"/>
        <path id="Path_78773" data-name="Path 78773" d="M325.275,140.307a2.479,2.479,0,0,1-.975,2.144,4.547,4.547,0,0,1-2.785.724,12.178,12.178,0,0,1-1.713-.111,6.938,6.938,0,0,1-1.49-.39v-2.45a9.309,9.309,0,0,0,1.559.515,6.464,6.464,0,0,0,1.518.209c.668,0,.988-.153.988-.459a.531.531,0,0,0-.278-.418,11.443,11.443,0,0,0-1.615-.71,3.962,3.962,0,0,1-1.7-1.142,2.592,2.592,0,0,1-.487-1.615,2.253,2.253,0,0,1,.947-1.921,4.557,4.557,0,0,1,2.7-.682,6.9,6.9,0,0,1,1.643.195,10.475,10.475,0,0,1,1.6.557l-.821,1.963a8.86,8.86,0,0,0-1.295-.459,4.453,4.453,0,0,0-1.114-.195c-.5,0-.752.125-.752.362a.455.455,0,0,0,.265.39,15.074,15.074,0,0,0,1.518.654,5.417,5.417,0,0,1,1.392.752,2.2,2.2,0,0,1,.668.863A3.055,3.055,0,0,1,325.275,140.307Z" transform="translate(-291.109 -115.343)" fill="#303030"/>
        <path id="Path_78774" data-name="Path 78774" d="M380.1,111.064a1.336,1.336,0,0,1,.376-1.03,1.858,1.858,0,0,1,1.239-.334,1.782,1.782,0,0,1,1.239.348,1.263,1.263,0,0,1,.39,1.016c0,.891-.543,1.351-1.629,1.351S380.1,111.955,380.1,111.064Zm3.133,11.055h-3.049v-8.855h3.049Z" transform="translate(-344.305 -94.427)" fill="#303030"/>
        <path id="Path_78775" data-name="Path 78775" d="M423.875,140.307a2.479,2.479,0,0,1-.975,2.144,4.547,4.547,0,0,1-2.785.724,12.178,12.178,0,0,1-1.712-.111,6.938,6.938,0,0,1-1.49-.39v-2.45a9.309,9.309,0,0,0,1.559.515,6.464,6.464,0,0,0,1.518.209c.668,0,.989-.153.989-.459a.531.531,0,0,0-.278-.418,11.443,11.443,0,0,0-1.615-.71,3.962,3.962,0,0,1-1.7-1.142,2.592,2.592,0,0,1-.487-1.615,2.253,2.253,0,0,1,.947-1.921,4.557,4.557,0,0,1,2.7-.682,6.9,6.9,0,0,1,1.643.195,10.477,10.477,0,0,1,1.6.557l-.821,1.963a8.862,8.862,0,0,0-1.295-.459,4.453,4.453,0,0,0-1.114-.195c-.5,0-.752.125-.752.362a.455.455,0,0,0,.265.39,15.067,15.067,0,0,0,1.518.654,5.417,5.417,0,0,1,1.392.752,2.2,2.2,0,0,1,.668.863A3.054,3.054,0,0,1,423.875,140.307Z" transform="translate(-375.981 -115.343)" fill="#303030"/>
        <path id="Path_78776" data-name="Path 78776" d="M479.67,130.968a4.362,4.362,0,0,0,1.476-.306v2.228a5.653,5.653,0,0,1-1.17.376,7.17,7.17,0,0,1-1.309.111,2.834,2.834,0,0,1-2.214-.752,3.347,3.347,0,0,1-.682-2.311v-3.648H474.7v-1.239l1.364-.961.794-1.866h2v1.768h2.144v2.283h-2.172v3.439Q478.835,130.968,479.67,130.968Z" transform="translate(-425.734 -105.531)" fill="#303030"/>
      </g>
    </g>
  </g>
</svg>
