<svg xmlns="http://www.w3.org/2000/svg" width="43.025" height="35.137" viewBox="0 0 43.025 35.137">
  <path id="rest-api-1" d="M185.993,2.489l.907,1.194a.719.719,0,0,1-.137,1.005l-.963.732a5.611,5.611,0,0,1,.333,1.471l1.1.151a.718.718,0,0,1,.613.809l-.2,1.488a.716.716,0,0,1-.809.613l-1.2-.165a5.586,5.586,0,0,1-.809,1.275l.672.883a.719.719,0,0,1-.14,1.005l-1.194.907a.721.721,0,0,1-1-.137l-.732-.963a5.636,5.636,0,0,1-1.474.333l-.151,1.1a.718.718,0,0,1-.809.613l-1.488-.2a.718.718,0,0,1-.613-.809l.165-1.2a5.773,5.773,0,0,1-1.275-.806l-.882.669a.718.718,0,0,1-1-.137l-.907-1.194a.719.719,0,0,1,.137-1.005l.963-.732a5.65,5.65,0,0,1-.333-1.471l-1.1-.151a.716.716,0,0,1-.613-.809l.2-1.488a.72.72,0,0,1,.809-.613l1.2.165a5.773,5.773,0,0,1,.805-1.275l-.669-.883a.715.715,0,0,1,.136-1L176.72.952a.719.719,0,0,1,1.005.137l.732.963a5.612,5.612,0,0,1,1.471-.333l.151-1.1a.721.721,0,0,1,.809-.616l1.488.2a.716.716,0,0,1,.613.809l-.165,1.2a5.679,5.679,0,0,1,1.278.809l.882-.669A.719.719,0,0,1,185.993,2.489Zm-25.6,21.017V17.727h2.976a4.179,4.179,0,0,1,1.264.144,1.334,1.334,0,0,1,.7.525,1.769,1.769,0,0,1,.063,1.768,1.591,1.591,0,0,1-.564.567,2.132,2.132,0,0,1-.627.228,1.693,1.693,0,0,1,.462.214,1.818,1.818,0,0,1,.284.3,2.339,2.339,0,0,1,.248.361l.868,1.671h-2.017l-.952-1.762a1.363,1.363,0,0,0-.322-.445.769.769,0,0,0-.438-.133h-.158V23.51h-1.793Zm6.3,10.062h-3.333l-.48,1.569h-3l3.582-9.522h3.221l3.568,9.522h-3.081Zm-.623-2.063-1.04-3.425L163.978,31.5Zm4.871-5.891h4.9a3.339,3.339,0,0,1,2.4.76,2.869,2.869,0,0,1,.795,2.168,2.95,2.95,0,0,1-.868,2.259,3.759,3.759,0,0,1-2.651.812h-1.614v3.523h-2.952V25.614Zm2.952,4.07h.725a1.864,1.864,0,0,0,1.2-.3.952.952,0,0,0,.347-.757,1.058,1.058,0,0,0-.3-.76,1.571,1.571,0,0,0-1.131-.312h-.844v2.126Zm6.324-4.07h2.952v9.522h-2.952V25.614Zm-18.026-5.54h.753a2.778,2.778,0,0,0,.473-.08.47.47,0,0,0,.291-.182.587.587,0,0,0-.066-.767,1.059,1.059,0,0,0-.665-.151h-.784Zm4.23-2.346h4.779V18.96H168.2v.921h2.77v1.177H168.2V22.2h3.074V23.5h-4.867Zm5.291,3.866,1.695-.105a1.266,1.266,0,0,0,.224.627.955.955,0,0,0,.788.35.875.875,0,0,0,.588-.179.542.542,0,0,0,.207-.417.537.537,0,0,0-.2-.4,2.293,2.293,0,0,0-.914-.336,3.909,3.909,0,0,1-1.674-.7,1.407,1.407,0,0,1-.5-1.114,1.512,1.512,0,0,1,.259-.84,1.714,1.714,0,0,1,.777-.623,3.646,3.646,0,0,1,1.422-.224,2.887,2.887,0,0,1,1.688.413,1.789,1.789,0,0,1,.69,1.313l-1.677.1a.919.919,0,0,0-.28-.571.9.9,0,0,0-.592-.179.72.72,0,0,0-.469.133.406.406,0,0,0-.158.322.337.337,0,0,0,.13.249,1.492,1.492,0,0,0,.6.214,7.472,7.472,0,0,1,1.677.511,1.739,1.739,0,0,1,.735.641,1.613,1.613,0,0,1,.231.855,1.808,1.808,0,0,1-.308,1.023,1.913,1.913,0,0,1-.858.711,3.472,3.472,0,0,1-1.39.242,2.869,2.869,0,0,1-2.041-.567A2.285,2.285,0,0,1,171.7,21.594Zm5.5-3.866h5.431v1.429h-1.821v4.35h-1.786v-4.35H177.2V17.727ZM171.195,4.013a11.092,11.092,0,0,0-1.929.021A10.56,10.56,0,0,0,163.8,6.17a10.265,10.265,0,0,0-3.757,6.353l-.168.879-.875.154a12.055,12.055,0,0,0-2.3.62,7.682,7.682,0,0,0-1.74.932,5.769,5.769,0,0,0-1.054.981,5.946,5.946,0,0,0-1.338,3.887,7.029,7.029,0,0,0,1.327,4.038A6.6,6.6,0,0,0,155,25.2a5.554,5.554,0,0,0,1.446.869,6.824,6.824,0,0,0,.97.315v2.623a9.459,9.459,0,0,1-1.947-.564,8.11,8.11,0,0,1-2.118-1.271,9.035,9.035,0,0,1-1.541-1.653,9.632,9.632,0,0,1-1.81-5.54,8.508,8.508,0,0,1,1.933-5.551,8.279,8.279,0,0,1,1.52-1.415,10.247,10.247,0,0,1,2.325-1.243,14.055,14.055,0,0,1,1.926-.588,12.664,12.664,0,0,1,4.524-7.053,13.144,13.144,0,0,1,6.8-2.658,13.875,13.875,0,0,1,3.862.172,2.948,2.948,0,0,0-.067.35l0,.021a3.463,3.463,0,0,0-.025.6,3.042,3.042,0,0,0-.749.424l-.01.007A3.133,3.133,0,0,0,171.195,4.013Zm18.527,6.724c.2.179.385.364.571.564a10.241,10.241,0,0,1,1.061,1.366,11.541,11.541,0,0,1,1.67,6.276,10.306,10.306,0,0,1-1.838,6.027,9.611,9.611,0,0,1-3.036,2.6,14.361,14.361,0,0,1-2.8,1.173V26.028a11.324,11.324,0,0,0,1.541-.7,7.018,7.018,0,0,0,2.237-1.895,7.745,7.745,0,0,0,1.324-4.507,8.921,8.921,0,0,0-1.257-4.854,7.266,7.266,0,0,0-.788-1.012c-.108-.116-.217-.224-.329-.329a3.351,3.351,0,0,0,.014-.532,3.042,3.042,0,0,0,.749-.424l.011-.007A3.182,3.182,0,0,0,189.722,10.737Zm-8.88-6.255a2.952,2.952,0,1,1-3.323,2.525A2.95,2.95,0,0,1,180.842,4.482Z" transform="translate(-150)" fill="#01b5e6" fill-rule="evenodd"/>
</svg>
