<svg width="774" height="774" viewBox="0 0 774 774" fill="none" xmlns="http://www.w3.org/2000/svg">
<g clip-path="url(#clip0_735_4682)">
<path d="M0 387V0H774V774H0" fill="#007ACC"/>
<path d="M169.699 388.354V419.895H270.319V706.275H341.721V419.895H442.341V388.935C442.341 371.52 442.341 357.394 441.567 357.007C441.567 356.427 380.227 356.233 305.73 356.233L170.28 356.814V388.548L169.699 388.354ZM621.909 356.04C641.646 360.684 656.739 369.585 670.284 383.71C677.443 391.45 688.086 404.995 688.86 408.478C688.86 409.639 655.384 432.279 635.067 444.856C634.293 445.437 631.197 442.147 628.101 437.116C618.039 422.797 607.783 416.605 591.723 415.444C568.503 413.896 553.023 426.087 553.023 446.404C553.023 452.596 554.184 456.079 556.506 461.11C561.73 471.753 571.405 478.138 601.398 491.296C656.739 515.097 680.733 530.77 695.245 553.216C711.693 578.371 715.369 617.845 704.34 647.451C691.956 679.765 661.77 701.631 618.619 708.79C605.074 711.112 574.114 710.725 559.602 708.21C528.642 702.405 499.036 686.925 480.847 666.994C473.688 659.254 459.949 638.55 460.723 637.195L468.076 632.551L497.101 615.717L518.967 602.946L523.998 609.718C530.383 619.78 544.702 633.325 553.023 637.969C578.178 650.934 611.847 649.192 628.488 634.099C635.647 627.52 638.743 620.554 638.743 610.879C638.743 601.978 637.389 597.915 632.938 591.142C626.746 582.628 614.362 575.662 579.532 560.182C539.478 543.154 522.45 532.318 506.583 515.677C497.488 505.615 489.168 489.942 485.298 476.977C482.395 465.754 481.428 438.277 484.137 427.248C492.457 388.548 521.676 361.458 563.472 353.718C577.017 351.009 608.944 352.17 622.296 355.653L621.909 356.04Z" fill="white"/>
</g>
<defs>
<clipPath id="clip0_735_4682">
<rect width="774" height="774" fill="white"/>
</clipPath>
</defs>
</svg>
