<svg xmlns="http://www.w3.org/2000/svg" xmlns:xlink="http://www.w3.org/1999/xlink" width="50.716" height="45.969" viewBox="0 0 50.716 45.969">
  <defs>
    <linearGradient id="linear-gradient" x1="-0.027" y1="0.182" x2="0.678" y2="0.772" gradientUnits="objectBoundingBox">
      <stop offset="0" stop-color="#ff5f47"/>
      <stop offset="1" stop-color="#ff9a44"/>
    </linearGradient>
    <linearGradient id="linear-gradient-2" x1="0" y1="0.5" x2="0.999" y2="0.5" xlink:href="#linear-gradient"/>
    <linearGradient id="linear-gradient-3" x1="-29.991" y1="0.182" x2="-29.286" y2="0.772" xlink:href="#linear-gradient"/>
    <linearGradient id="linear-gradient-4" x1="-22.826" y1="0.5" x2="-21.827" y2="0.5" xlink:href="#linear-gradient"/>
    <linearGradient id="linear-gradient-5" x1="0.001" y1="0.5" x2="1.001" y2="0.5" xlink:href="#linear-gradient"/>
    <linearGradient id="linear-gradient-6" x1="0.001" y1="0.499" x2="1.001" y2="0.499" xlink:href="#linear-gradient"/>
  </defs>
  <g id="Group_105706" data-name="Group 105706" transform="translate(-4422 -5913)">
    <g id="Group_105705" data-name="Group 105705" transform="translate(4422 5913)">
      <path id="Path_78801" data-name="Path 78801" d="M45.058,31.95s6.675-4.726,5.535-7.686c-2.262,2.262-3.494,1.122-4.818-.607-1.342-1.747-.313-3.788,1.637-5.848-3.641.515.717-2.556,2.06-9.856s-.2-8.826-3.788-7.5C42.1,1.756,33.675,5.894,25.364,5.894h0c-8.312,0-16.715-4.137-20.3-5.461C1.477-.873-.068.653,1.256,7.935c1.342,7.282,5.7,10.353,2.059,9.856,1.949,2.06,2.979,4.1,1.637,5.848S2.4,26.507.135,24.245C-.987,27.224,5.67,31.932,5.67,31.932s-3.9-1.747-5.241-3.7c1.048,5.241,3.365,9.194,6.546,11.125a4.973,4.973,0,0,1-1.968-.7s6.16,7.319,20.356,7.319S45.72,38.662,45.72,38.662a5.339,5.339,0,0,1-1.968.7c3.2-1.931,5.517-5.866,6.546-11.107C48.956,30.2,45.058,31.95,45.058,31.95Z" transform="translate(-0.007 -0.011)" fill="#222236"/>
      <path id="Path_78802" data-name="Path 78802" d="M18.87,18.2s-.313,7.686,3.31,11.07c-.5-3.31.239-4.193.239-4.193a11.107,11.107,0,0,0,5.664-.846C22.4,23.11,18.87,18.2,18.87,18.2Z" transform="translate(-15.396 -14.855)" fill="url(#linear-gradient)"/>
      <path id="Path_78803" data-name="Path 78803" d="M13.307,107.323,8.415,105.3c1.067,1.765,1.122,3.328.129,4.634-.791,1.03-1.729,2.115-3.034,2.115a3.03,3.03,0,0,1-1.71-.607c.5,1.894,3.31,4.487,5.333,5.921l-.607,1.067a21.051,21.051,0,0,1-3.88-2.3c1.14,4.027,3.144,7.043,5.756,8.624a4.934,4.934,0,0,0-.736-2.593,8.079,8.079,0,0,0,4.34,1.085,9.984,9.984,0,0,1-2.924-3.843c5.259.092,4.928-.625,4.928-.625Z" transform="translate(-3.103 -85.939)" fill="url(#linear-gradient-2)"/>
      <path id="Path_78804" data-name="Path 78804" d="M109.5,177.674a3.888,3.888,0,0,1-3.586,2.538c-2.721,0-2.813-1.71-2.813-2.685s.2-2.427,6.418-2.427C109.5,176.553,109.5,177.674,109.5,177.674Z" transform="translate(-84.143 -142.904)" fill="#fff"/>
      <path id="Path_78805" data-name="Path 78805" d="M216.113,18.2s.313,7.686-3.31,11.07c.5-3.31-.239-4.193-.239-4.193a11.1,11.1,0,0,1-5.664-.846C212.564,23.11,216.113,18.2,216.113,18.2Z" transform="translate(-168.856 -14.855)" fill="url(#linear-gradient-3)"/>
      <path id="Path_78806" data-name="Path 78806" d="M208.385,107.323l4.891-2.023c-1.067,1.765-1.122,3.328-.129,4.634.791,1.03,1.728,2.115,3.034,2.115a3.03,3.03,0,0,0,1.71-.607c-.5,1.894-3.31,4.487-5.333,5.921l.607,1.067a21.052,21.052,0,0,0,3.88-2.3c-1.14,4.027-3.144,7.043-5.756,8.624a4.934,4.934,0,0,1,.736-2.593,8.079,8.079,0,0,1-4.34,1.085,9.984,9.984,0,0,0,2.924-3.843c-5.259.092-4.928-.625-4.928-.625Z" transform="translate(-167.858 -85.939)" fill="url(#linear-gradient-4)"/>
      <path id="Path_78807" data-name="Path 78807" d="M69.142,88c-3.2,0-8.312,3.071-11.548,3.071h0C54.358,91.071,49.246,88,46.046,88S39.5,87.963,39.5,96.845s4.119,9.194,8.422,6.546A19.011,19.011,0,0,1,57.576,101h0a18.8,18.8,0,0,1,9.654,2.391c4.3,2.648,8.422,2.354,8.422-6.546S72.342,88,69.142,88Z" transform="translate(-32.238 -71.82)" stroke="#fff" stroke-miterlimit="10" stroke-width="5" fill="url(#linear-gradient-5)"/>
      <path id="Path_78808" data-name="Path 78808" d="M137.818,177.674a3.888,3.888,0,0,0,3.586,2.538c2.721,0,2.813-1.71,2.813-2.685s-.2-2.427-6.418-2.427C137.818,176.553,137.818,177.674,137.818,177.674Z" transform="translate(-112.462 -142.904)" fill="#fff"/>
      <path id="Path_78809" data-name="Path 78809" d="M122.883,174.1H119.5a3.42,3.42,0,0,0,6.767,0Z" transform="translate(-97.527 -142.088)" fill="url(#linear-gradient-6)"/>
    </g>
  </g>
</svg>
